<?xml version="1.0" encoding="iso-8859-1"?>
<!-- Generator: Adobe Illustrator 19.0.0, SVG Export Plug-In . SVG Version: 6.00 Build 0)  -->
<svg version="1.1" id="Layer_1" xmlns="http://www.w3.org/2000/svg" xmlns:xlink="http://www.w3.org/1999/xlink" x="0px" y="0px"
	 viewBox="0 0 512 512" style="enable-background:new 0 0 512 512;" xml:space="preserve">
<g>
	<g>
		<path d="M428.377,406.89l-28.245-296.661c-3.669-38.506-35.626-67.563-74.326-67.563h-38.742C284.952,26.666,278.19,0,256.024,0
			s-28.928,26.667-31.04,42.667H186.2c-38.699,0-70.656,29.056-74.325,67.563L83.629,406.89
			c-2.581,26.859,6.379,53.718,24.534,73.685c15.062,16.576,35.541,26.838,57.494,29.995c1.514,0.832,3.157,1.43,5.013,1.43h170.667
			c1.856,0,3.498-0.597,5.013-1.43c21.93-3.157,42.432-13.419,57.493-29.995C421.998,460.629,430.937,433.749,428.377,406.89z
			 M256.025,21.333c3.435,0,7.424,9.728,9.429,21.333h-18.859C248.601,31.04,252.59,21.333,256.025,21.333z M186.201,64L186.201,64
			l139.605,0c13.974,0,26.688,5.333,36.224,14.144l-18.602,123.968c-5.995,39.958-37.461,69.568-76.758,74.261v-9.706
			c0-5.888-4.779-10.666-10.667-10.666c-5.888,0-10.667,4.778-10.667,10.666v9.728c-39.211-4.63-70.763-34.262-76.758-74.283
			l-18.581-123.99C159.513,69.312,172.228,64,186.201,64z M330.67,490.666H181.336v-53.333c0-17.643,14.357-32,32-32h85.334
			c17.643,0,32,14.357,32,32V490.666z M388.055,466.218l0.001,0c-9.685,10.688-22.336,17.941-36.053,21.632v-50.518
			c0-29.398-23.936-53.333-53.333-53.333h-85.334c-29.398,0-53.333,23.936-53.333,53.333v50.518
			c-13.718-3.67-26.346-10.944-36.054-21.611c-14.122-15.531-21.078-36.438-19.094-57.323l28.246-296.64
			c0.042-0.427,0.192-0.832,0.234-1.259l14.144,94.272c7.573,50.474,47.914,87.616,97.856,92.416v32.96
			c0,5.888,4.779,10.667,10.667,10.667c5.888,0,10.667-4.779,10.667-10.667v-32.938c49.877-4.736,90.282-41.898,97.856-92.437
			l14.144-94.272c0.043,0.427,0.192,0.832,0.235,1.259l28.245,296.64C409.133,429.823,402.178,450.709,388.055,466.218z"/>
	</g>
</g>
<g>
</g>
<g>
</g>
<g>
</g>
<g>
</g>
<g>
</g>
<g>
</g>
<g>
</g>
<g>
</g>
<g>
</g>
<g>
</g>
<g>
</g>
<g>
</g>
<g>
</g>
<g>
</g>
<g>
</g>
</svg>
