<svg height="512pt" viewBox="-40 0 512 512" width="512pt" xmlns="http://www.w3.org/2000/svg"><path d="m351.261719 175.632812c0 29.074219-7.269531 57.910157-21.042969 83.394532l-.070312.128906-132.605469 239.820312c-4.398438 7.972657-12.800781 12.921876-21.910157 12.921876-9.125 0-17.515624-4.949219-21.925781-12.929688l-132.625-239.863281c-13.789062-25.535157-21.082031-54.390625-21.082031-83.472657 0-96.839843 78.785156-175.632812 175.632812-175.632812 96.835938 0 175.628907 78.792969 175.628907 175.632812zm0 0" fill="#c78ff5"/><path d="m351.261719 175.632812c0 29.074219-7.269531 57.910157-21.042969 83.394532l-.070312.128906-132.605469 239.820312c-4.398438 7.972657-12.800781 12.921876-21.910157 12.921876v-511.898438c96.835938 0 175.628907 78.792969 175.628907 175.632812zm0 0" fill="#a260e5"/><path d="m255.925781 173.570312c0 44.277344-36.015625 80.292969-80.292969 80.292969-44.28125 0-80.304687-36.015625-80.304687-80.292969 0-44.277343 36.023437-80.304687 80.304687-80.304687 44.277344 0 80.292969 36.027344 80.292969 80.304687zm0 0" fill="#f7ecd9"/><path d="m431.65625 395.21875c0 64.390625-52.390625 116.78125-116.78125 116.78125-64.402344 0-116.789062-52.390625-116.789062-116.78125 0-64.402344 52.386718-116.789062 116.789062-116.789062 64.390625 0 116.78125 52.386718 116.78125 116.789062zm0 0" fill="#d2eb5a"/><path d="m431.65625 395.21875c0 64.390625-52.390625 116.78125-116.78125 116.78125v-233.570312c64.390625 0 116.78125 52.386718 116.78125 116.789062zm0 0" fill="#aece2c"/><path d="m363.613281 380.40625-48.738281 48.730469-2.101562 2.097656v.011719c-.589844.589844-1.21875 1.101562-1.878907 1.570312-2.601562 1.871094-5.660156 2.820313-8.730469 2.820313-3.839843 0-7.683593-1.460938-10.613281-4.390625l-25.414062-25.425782c-5.859375-5.851562-5.859375-15.351562 0-21.210937 5.859375-5.863281 15.363281-5.863281 21.214843 0l14.8125 14.8125 40.226563-40.230469c5.859375-5.859375 15.363281-5.859375 21.222656 0 5.851563 5.851563 5.851563 15.355469 0 21.214844zm0 0" fill="#fff"/><path d="m255.925781 173.570312c0 44.277344-36.015625 80.292969-80.292969 80.292969v-160.597656c44.277344 0 80.292969 36.027344 80.292969 80.304687zm0 0" fill="#eacd9d"/><path d="m363.613281 380.40625-48.738281 48.730469v-42.429688l27.515625-27.515625c5.859375-5.859375 15.363281-5.859375 21.222656 0 5.851563 5.851563 5.851563 15.355469 0 21.214844zm0 0" fill="#f7ecd9"/></svg>