<svg height="512pt" viewBox="-40 0 512 512" width="512pt" xmlns="http://www.w3.org/2000/svg"><path d="m351.261719 175.632812c0 29.074219-7.269531 57.910157-21.042969 83.394532l-.070312.128906-132.605469 239.820312c-4.398438 7.972657-12.800781 12.921876-21.910157 12.921876-9.125 0-17.515624-4.949219-21.925781-12.929688l-132.625-239.863281c-13.789062-25.535157-21.082031-54.390625-21.082031-83.472657 0-96.839843 78.785156-175.632812 175.632812-175.632812 96.835938 0 175.628907 78.792969 175.628907 175.632812zm0 0" fill="#c78ff5"/><path d="m351.261719 175.632812c0 29.074219-7.269531 57.910157-21.042969 83.394532l-.070312.128906-132.605469 239.820312c-4.398438 7.972657-12.800781 12.921876-21.910157 12.921876v-511.898438c96.835938 0 175.628907 78.792969 175.628907 175.632812zm0 0" fill="#a260e5"/><path d="m255.925781 173.570312c0 44.277344-36.015625 80.292969-80.292969 80.292969-44.28125 0-80.304687-36.015625-80.304687-80.292969 0-44.277343 36.023437-80.304687 80.304687-80.304687 44.277344 0 80.292969 36.027344 80.292969 80.304687zm0 0" fill="#f7ecd9"/><path d="m431.65625 395.21875c0 64.390625-52.390625 116.78125-116.78125 116.78125-64.402344 0-116.789062-52.390625-116.789062-116.78125 0-64.402344 52.386718-116.789062 116.789062-116.789062 64.390625 0 116.78125 52.386718 116.78125 116.789062zm0 0" fill="#f9af2b"/><path d="m431.65625 395.21875c0 64.390625-52.390625 116.78125-116.78125 116.78125v-233.570312c64.390625 0 116.78125 52.386718 116.78125 116.789062zm0 0" fill="#f48603"/><path d="m255.925781 173.570312c0 44.277344-36.015625 80.292969-80.292969 80.292969v-160.597656c44.277344 0 80.292969 36.027344 80.292969 80.304687zm0 0" fill="#eacd9d"/><path d="m361.492188 389.0625v50.5c0 9.332031-7.589844 16.914062-16.910157 16.914062h-59.421875c-9.320312 0-16.914062-7.582031-16.914062-16.914062v-50.5c0-4.050781 1.480468-7.980469 4.089844-11.03125l30.066406-38.648438.820312-.777343c3.269532-3.101563 7.453125-4.652344 11.652344-4.652344 4.179688 0 8.382812 1.550781 11.640625 4.652344l.820313.777343 30.066406 38.648438c2.609375 3.050781 4.089844 6.980469 4.089844 11.03125zm0 0" fill="#fff"/><path d="m361.492188 389.0625v50.5c0 9.332031-7.589844 16.914062-16.910157 16.914062h-29.707031v-122.523437c4.179688 0 8.382812 1.550781 11.640625 4.652344l.820313.777343 30.066406 38.648438c2.609375 3.050781 4.089844 6.980469 4.089844 11.03125zm0 0" fill="#f7ecd9"/></svg>