<svg height="512pt" viewBox="-40 0 512 512" width="512pt" xmlns="http://www.w3.org/2000/svg"><path d="m351.261719 175.632812c0 29.074219-7.269531 57.910157-21.042969 83.394532l-.070312.128906-132.605469 239.820312c-4.398438 7.972657-12.800781 12.921876-21.910157 12.921876-9.125 0-17.515624-4.949219-21.925781-12.929688l-132.625-239.863281c-13.789062-25.535157-21.082031-54.390625-21.082031-83.472657 0-96.839843 78.785156-175.632812 175.632812-175.632812 96.835938 0 175.628907 78.792969 175.628907 175.632812zm0 0" fill="#c78ff5"/><path d="m351.261719 175.632812c0 29.074219-7.269531 57.910157-21.042969 83.394532l-.070312.128906-132.605469 239.820312c-4.398438 7.972657-12.800781 12.921876-21.910157 12.921876v-511.898438c96.835938 0 175.628907 78.792969 175.628907 175.632812zm0 0" fill="#a260e5"/><path d="m255.925781 173.570312c0 44.277344-36.015625 80.292969-80.292969 80.292969-44.28125 0-80.304687-36.015625-80.304687-80.292969 0-44.277343 36.023437-80.304687 80.304687-80.304687 44.277344 0 80.292969 36.027344 80.292969 80.304687zm0 0" fill="#f7ecd9"/><path d="m431.65625 395.21875c0 64.390625-52.390625 116.78125-116.78125 116.78125-64.402344 0-116.789062-52.390625-116.789062-116.78125 0-64.402344 52.386718-116.789062 116.789062-116.789062 64.390625 0 116.78125 52.386718 116.78125 116.789062zm0 0" fill="#f9af2b"/><path d="m431.65625 395.21875c0 64.390625-52.390625 116.78125-116.78125 116.78125v-233.570312c64.390625 0 116.78125 52.386718 116.78125 116.789062zm0 0" fill="#f48603"/><path d="m255.925781 173.570312c0 44.277344-36.015625 80.292969-80.292969 80.292969v-160.597656c44.277344 0 80.292969 36.027344 80.292969 80.304687zm0 0" fill="#eacd9d"/><path d="m329.878906 347.765625v51.890625c0 8.289062-6.722656 15-15.003906 15s-15.003906-6.710938-15.003906-15v-51.890625c0-8.28125 6.722656-15.003906 15.003906-15.003906s15.003906 6.722656 15.003906 15.003906zm0 0" fill="#fff"/><path d="m329.878906 442.664062c0 .488282-.03125.988282-.070312 1.480469-.050782.480469-.128906.96875-.21875 1.449219-.101563.480469-.222656.960938-.363282 1.429688-.148437.460937-.308593.929687-.5 1.378906-.1875.453125-.398437.902344-.628906 1.332031-.230468.429687-.480468.851563-.75 1.261719-.269531.410156-.558594.796875-.871094 1.179687-.308593.378907-.648437.75-.988281 1.097657-.351562.339843-.722656.679687-1.101562.992187-.378907.308594-.78125.597656-1.179688.871094-.410156.269531-.832031.527343-1.269531.757812-.429688.230469-.871094.441407-1.320312.621094-.449219.191406-.921876.359375-1.390626.5-.460937.140625-.941406.257813-1.421874.359375-.480469.101562-.96875.171875-1.460938.21875-.476562.050781-.976562.070312-1.46875.070312-.488281 0-.988281-.019531-1.480469-.070312-.480469-.046875-.96875-.117188-1.449219-.21875-.480468-.101562-.960937-.21875-1.429687-.359375-.460937-.140625-.929687-.308594-1.382813-.5-.449218-.179687-.898437-.390625-1.328124-.621094-.429688-.230469-.851563-.488281-1.261719-.757812-.410157-.273438-.800781-.5625-1.179688-.871094-.378906-.3125-.75-.652344-1.101562-.992187-.339844-.347657-.679688-.71875-.988281-1.097657-.308594-.382812-.601563-.769531-.871094-1.179687-.269532-.410156-.527344-.832032-.75-1.261719-.230469-.429687-.4375-.878906-.628906-1.332031-.191407-.449219-.359376-.917969-.5-1.378906-.140626-.46875-.261719-.949219-.359376-1.429688-.089843-.480469-.171874-.96875-.222656-1.449219-.046875-.492187-.070312-.992187-.070312-1.480469 0-.492187.023437-.980468.070312-1.472656.050782-.488281.132813-.980468.222656-1.460937.097657-.476563.21875-.957031.359376-1.417969.140624-.46875.308593-.929688.5-1.390625.191406-.449219.398437-.890625.628906-1.320313.222656-.429687.480468-.859374.75-1.261718.269531-.410156.5625-.808594.871094-1.1875.308593-.382813.648437-.75.988281-1.089844.351562-.351562.722656-.683594 1.101562-.992188.378907-.308593.769531-.609374 1.179688-.878906.410156-.269531.832031-.519531 1.261719-.75.429687-.230468.878906-.441406 1.328124-.632812.453126-.179688.921876-.347656 1.382813-.488282.46875-.148437.949219-.269531 1.429687-.359374.480469-.101563.96875-.171876 1.449219-.222657.492188-.046875.992188-.066406 1.480469-.066406.492188 0 .992188.019531 1.46875.066406.492188.050781.980469.121094 1.460938.222657.480468.089843.960937.210937 1.421874.359374.46875.140626.941407.308594 1.390626.488282.449218.191406.890624.402344 1.320312.632812.4375.230469.859375.480469 1.269531.75.398438.269532.800781.570313 1.179688.878906.378906.308594.75.640626 1.101562.992188.339844.339844.679688.707031.988281 1.089844.3125.378906.601563.777344.871094 1.1875.269532.402344.519532.832031.75 1.261718.230469.429688.441406.871094.628906 1.320313.191407.460937.351563.921875.5 1.390625.140626.460938.261719.941406.363282 1.417969.089844.480469.167968.972656.21875 1.460937.039062.492188.070312.980469.070312 1.472656zm0 0" fill="#fff"/><g fill="#f7ecd9"><path d="m329.808594 441.191406c.039062.492188.070312.980469.070312 1.472656 0 .488282-.03125.988282-.070312 1.480469-.050782.480469-.128906.96875-.21875 1.449219-.101563.480469-.222656.960938-.363282 1.429688-.148437.460937-.308593.929687-.5 1.378906-.1875.453125-.398437.902344-.628906 1.332031-.230468.429687-.480468.851563-.75 1.261719-.269531.410156-.558594.796875-.871094 1.179687-.308593.378907-.648437.75-.988281 1.097657-.351562.339843-.722656.679687-1.101562.992187-.378907.308594-.78125.597656-1.179688.871094-.410156.269531-.832031.527343-1.269531.757812-.429688.230469-.871094.441407-1.320312.621094-.449219.191406-.921876.359375-1.390626.5-.460937.140625-.941406.257813-1.421874.359375-.480469.101562-.96875.171875-1.460938.21875-.476562.050781-.976562.070312-1.46875.070312v-29.992187c.492188 0 .992188.019531 1.46875.066406.492188.050781.980469.121094 1.460938.222657.480468.089843.960937.210937 1.421874.359374.46875.140626.941407.308594 1.390626.488282.449218.191406.890624.402344 1.320312.632812.4375.230469.859375.480469 1.269531.75.398438.269532.800781.570313 1.179688.878906.378906.308594.75.640626 1.101562.992188.339844.339844.679688.707031.988281 1.089844.3125.378906.601563.777344.871094 1.1875.269532.402344.519532.832031.75 1.261718.230469.429688.441406.871094.628906 1.320313.191407.460937.351563.921875.5 1.390625.140626.460938.261719.941406.363282 1.417969.089844.480469.167968.972656.21875 1.460937zm0 0"/><path d="m329.878906 347.765625v51.890625c0 8.289062-6.722656 15-15.003906 15v-81.894531c8.28125 0 15.003906 6.722656 15.003906 15.003906zm0 0"/></g></svg>